<?xml version="1.0" encoding="UTF-8"?>
<svg width="50" height="50" viewBox="0 0 50 50"
     xmlns="http://www.w3.org/2000/svg">

    <!-- Document background -->
    <path d="M10 4h20l8 8v30a4 4 0 0 1-4 4H10a4 4 0 0 1-4-4V8a4 4 0 0 1 4-4z"
          fill="#875A7B"/>

    <!-- Folded corner -->
    <path d="M30 4v8h8z"
          fill="#A06B96"/>

    <!-- Checklist lines -->
    <path d="M14 18h16M14 24h16M14 30h10"
          stroke="#FFFFFF"
          stroke-width="2"
          stroke-linecap="round"/>

    <!-- Check mark -->
    <path d="M16 32l3 3 6-6"
          fill="none"
          stroke="#1AD3BB"
          stroke-width="3"
          stroke-linecap="round"
          stroke-linejoin="round"/>

    <!-- Magnifying glass -->
    <path d="M34 34a5 5 0 1 1-7.07-7.07A5 5 0 0 1 34 34z"
          fill="none"
          stroke="#FFFFFF"
          stroke-width="2"/>

    <path d="M36 36l4 4"
          stroke="#FFFFFF"
          stroke-width="2"
          stroke-linecap="round"/>

</svg>
